# xmcd CD database file
#
# Track frame offsets:
#	150
#	17925
#	36318
#	60713
#	67785
#	84438
#	100508
#	107025
#	129610
#
# Disc length: 1989 seconds
#
# Revision: 0
# Processed by: cddbd v1.5.2PL0 Copyright (c) Steve Scherf et al.
# Submitted via: CDex 1.70beta2
#
DISCID=6e07c309
DTITLE=楠木勇有行 - Tree of Life
DYEAR=2002
DGENRE=Jazz
TTITLE0=Back Stabbers
TTITLE1=Sahara-no-kaze
TTITLE2=Simple Love
TTITLE3=Interlude -For all we know
TTITLE4=Gotta get it up
TTITLE5=Love Machine
TTITLE6=Interlude -I believe in music
TTITLE7=Lemuria
TTITLE8=All my life
EXTD=YEAR: 2002
EXTT0=
EXTT1=
EXTT2=
EXTT3=
EXTT4=
EXTT5=
EXTT6=
EXTT7=
EXTT8=
PLAYORDER=
